# xmcd CD database file
#
# Track frame offsets:
#	150
#	19014
#	37927
#	54052
#	72577
#	89902
#	109327
#	123727
#	140685
#	159360
#
# Disc length: 2356 seconds
#
# Revision: 1
# Processed by: cddbd v1.5.2PL0 Copyright (c) Steve Scherf et al.
# Submitted via: jetAudio 5
#
DISCID=8b09320a
DTITLE=เมฆา (2006) - โสรยาหน้าจอ
DYEAR=1900
DGENRE=
TTITLE0=โสรยาหน้าจอ
TTITLE1=ต้นพร้าวเงาจันทร์ฉันกับเธอ
TTITLE2=พี่เท่งอกหัก
TTITLE3=ขอเคลียร์
TTITLE4=เลี้ยงผมด้วย
TTITLE5=ใจต่อใจ
TTITLE6=คนแบบนี้
TTITLE7=เสียบ
TTITLE8=เหงาโหร่หม้าย
TTITLE9=ด่วนสายคิดถึง
EXTD=
EXTT0=
EXTT1=
EXTT2=
EXTT3=
EXTT4=
EXTT5=
EXTT6=
EXTT7=
EXTT8=
EXTT9=
PLAYORDER=
